# xmcd
# 
# Track frame offsets:
#     150
#     22407
#     45985
#     70770
#     89112
#     135087
#     162255
#     179727
#     224725
# 
# Disc length: 3686
# 
# Revision: 7
# Processed by: cddbd v1.5.2PL0 Copyright (c) Steve Scherf et al.
# Submitted via: fre:ac v1.0.17
# 
DISCID=850e6409
DTITLE=The Sounds Of Nature - Mountain Paradise
DYEAR=1993
DGENRE=New Age
TTITLE0=Mountain serenity
TTITLE1=In the fields
TTITLE2=Country spirit
TTITLE3=Hillside play
TTITLE4=Alone with you
TTITLE5=Piano pastoral
TTITLE6=Hill To Hill
TTITLE7=Songbirds
TTITLE8=Nightfall
EXTD=YEAR: 1993
EXTT0=
EXTT1=
EXTT2=
EXTT3=
EXTT4=
EXTT5=
EXTT6=
EXTT7=
EXTT8=
PLAYORDER=
